<svg width="107" height="107" viewBox="0 0 107 107" fill="none" xmlns="http://www.w3.org/2000/svg">
<g clip-path="url(#clip0_1588_23916)">
<path d="M23.5086 69.689C23.2557 69.689 22.9931 69.689 22.7402 69.6793C20.4448 69.5621 18.2564 68.9959 16.2138 67.9905C14.1713 66.9851 12.3719 65.6087 10.8838 63.8809C10.2029 63.1878 9.6388 62.2897 9.27893 61.2843C8.91905 60.2788 8.78288 59.2343 8.87042 58.1703L8.88987 58.0434C9.46373 54.7147 12.7999 51.9814 16.8169 51.5519C21.0284 51.0834 26.0083 53.0455 26.7183 56.6865C27.2241 59.3319 25.3858 62.1042 22.1469 63.588C21.4077 63.9199 20.5518 63.5978 20.2114 62.8656C19.8807 62.1335 20.2017 61.2647 20.9311 60.9231C22.8959 60.025 24.0922 58.512 23.8491 57.243C23.5086 55.5054 20.1822 54.129 17.1281 54.4609C14.181 54.783 12.1093 56.7451 11.7689 58.4827C11.73 59.0977 11.8078 59.7029 12.0218 60.2886C12.2357 60.8938 12.5762 61.4307 13.0236 61.8895C14.3172 63.383 15.8053 64.5251 17.488 65.3549C19.1804 66.1846 20.9895 66.6532 22.8667 66.7508C25.1913 66.8484 27.4867 66.4579 29.6654 65.6087C31.8539 64.7594 33.8089 63.5002 35.4915 61.87C40.8216 56.8623 40.024 50.3708 39.635 47.2471C39.1487 43.3131 37.8842 41.3706 36.2891 38.9204C34.7815 36.6069 33.0794 33.9908 31.7761 29.2759C29.539 21.2323 29.8891 14.9166 32.8557 9.97719C38.0593 1.3284 48.6319 0.254616 50.7036 0.127715C51.5109 0.0789073 52.2015 0.693889 52.2501 1.5041C52.2987 2.31432 51.686 3.00739 50.8787 3.0562C49.0696 3.16358 39.8003 4.1007 35.3456 11.4902C32.8168 15.6975 32.5736 21.2616 34.5773 28.495C35.7639 32.7706 37.2715 35.0841 38.7304 37.3195C40.3936 39.8673 41.9596 42.2784 42.5237 46.8761C42.9322 50.2048 43.8951 57.9848 37.4952 63.9882C35.5499 65.882 33.2642 67.356 30.7062 68.3419C28.3913 69.24 25.9694 69.689 23.4989 69.689H23.5086Z" fill="url(#paint0_linear_1588_23916)"/>
<path d="M82.266 69.688C79.7858 69.688 77.3639 69.2389 75.0491 68.3409C72.491 67.3549 70.1956 65.8809 68.2309 63.9676C61.8504 57.9838 62.8133 50.2038 63.2218 46.8848C63.7956 42.2676 65.3616 39.8662 67.0151 37.3184C68.474 35.083 69.9719 32.7695 71.1585 28.4939C73.133 21.3679 72.8704 15.6476 70.3901 11.4892C66.2661 4.59748 57.2692 3.26014 54.6139 3.0161C53.6413 2.92824 52.6492 2.90872 51.6668 2.95753L50.8109 3.06491C50.0036 3.16252 49.2839 2.57683 49.1963 1.77637C49.1088 0.97592 49.6826 0.243799 50.4802 0.155944L51.4334 0.0388048C52.6395 -0.0197649 53.7677 -0.000241638 54.8765 0.0973746C57.882 0.3707 68.0558 1.90327 72.8898 9.98589C75.8077 14.8569 76.1676 21.3484 73.9694 29.2846C72.6661 33.9995 70.9543 36.6156 69.4564 38.9291C67.8613 41.3793 66.5968 43.3121 66.1105 47.246C65.7215 50.3795 64.9239 56.871 70.2345 61.8591C71.9366 63.5186 73.8916 64.7779 76.0801 65.6174C78.2685 66.4569 80.5736 66.8376 82.908 66.7497C84.7657 66.6521 86.5748 66.1835 88.2672 65.3538C89.9596 64.5241 91.438 63.382 92.6733 61.9568C93.1791 61.4394 93.5292 60.883 93.7432 60.2875C93.9474 59.7018 94.035 59.0966 93.9961 58.4816C93.6556 56.744 91.5839 54.7722 88.6368 54.4598C85.573 54.1182 82.2466 55.5043 81.9062 57.2517C81.663 58.5109 82.8691 60.024 84.8241 60.9318C85.5536 61.2637 85.8843 62.1325 85.5438 62.8744C85.2131 63.6065 84.3475 63.9384 83.6083 63.5967C80.3694 62.1129 78.5311 59.3406 79.0369 56.6952C79.7469 53.0444 84.7268 51.1018 88.9383 51.5509C92.9553 51.9804 96.2915 54.7136 96.8653 58.0423L96.8848 58.1692C96.9723 59.2333 96.8362 60.2778 96.4763 61.2832C96.1164 62.2789 95.5426 63.1965 94.8131 63.9481C93.3833 65.6076 91.5936 66.984 89.5414 67.9894C87.4988 68.9851 85.3104 69.5611 83.0344 69.6782C82.7718 69.6782 82.5092 69.688 82.2563 69.688H82.266Z" fill="url(#paint1_linear_1588_23916)"/>
<path d="M98.7621 93.7791C97.4587 93.7791 96.1262 93.496 94.9104 92.9494C93.6752 92.3344 92.6539 91.4558 91.8855 90.3821C90.5141 88.4395 89.4733 85.3451 91.0296 82.9535C91.6229 81.9285 92.5663 81.1476 93.6654 80.7278C94.784 80.3081 96.0289 80.2983 97.1572 80.6888C97.9159 80.9523 98.3146 81.7918 98.052 82.5532C97.7894 83.3146 96.9529 83.7149 96.1943 83.4513C95.708 83.2756 95.173 83.2854 94.6867 83.4611C94.2004 83.6465 93.7919 83.9882 93.539 84.4372L93.4806 84.5251C92.4496 86.0674 94.2393 88.6347 94.2587 88.664C94.7451 89.3473 95.3967 89.9037 96.1554 90.2844C97.0016 90.6651 98.0034 90.8506 98.9955 90.8311C99.6082 90.8311 100.172 90.7237 100.717 90.5285C103.226 89.5133 104.676 85.7648 103.83 82.358C103.654 81.6161 103.363 80.9231 102.964 80.2788C101.641 77.9653 99.404 77.3893 97.235 76.8329C95.4454 76.4229 93.5584 76.3449 91.691 76.5987C89.7457 76.8134 87.8393 77.1648 85.9816 77.6236C81.8576 78.5705 77.6266 78.2581 73.7069 76.7158C69.8163 75.1832 66.4996 72.5476 64.1361 69.092C60.9459 65.1385 58.5921 60.4334 57.3374 55.5038C57.1331 54.7229 57.6097 53.9224 58.3878 53.7272C59.1659 53.5222 59.9635 54.0005 60.158 54.7814C61.3155 59.3304 63.4844 63.6548 66.4315 67.2958L66.4996 67.3935C68.5422 70.3903 71.392 72.6647 74.7573 73.9923C78.1227 75.3101 81.7701 75.5834 85.291 74.7732C87.246 74.2852 89.2885 73.9142 91.3214 73.6897C93.5001 73.3968 95.7274 73.4945 97.9061 73.9825C100.435 74.6366 103.538 75.437 105.454 78.7755C105.989 79.6443 106.397 80.6204 106.65 81.6552C107.866 86.5555 105.707 91.6608 101.748 93.2617C100.843 93.5839 99.9584 93.7498 99.0538 93.7498C98.9566 93.7498 98.8593 93.7498 98.7621 93.7498V93.7791Z" fill="url(#paint2_linear_1588_23916)"/>
<path d="M7.9558 93.7792C7.86827 93.7792 7.79046 93.7792 7.70292 93.7792C6.85672 93.8085 5.94244 93.6425 5.07679 93.2911C3.46221 92.5492 2.19778 91.3778 1.34186 89.8941C0.437307 88.1467 -0.0198336 86.2334 -0.000380821 84.3299C0.019072 82.4167 0.505391 80.5229 1.40995 78.8439C3.29686 75.4761 6.47739 74.6366 8.79227 74.0314C10.971 73.5238 13.1691 73.4262 15.3381 73.7288C17.2931 73.9533 19.2968 74.3145 21.2518 74.8221C24.4907 75.4664 27.9338 75.2516 31.1338 74.1681C34.538 72.7429 37.4657 70.4001 39.6249 67.4033C42.6012 63.6353 44.6632 59.4183 45.8012 54.8303C45.9957 54.0494 46.7836 53.5711 47.5714 53.7663C48.3495 53.9615 48.8261 54.762 48.6316 55.5429C47.3866 60.5409 45.1398 65.1288 41.9495 69.1701C39.5179 72.5769 36.1332 75.2711 32.2037 76.9013L32.1162 76.9404C28.4104 78.1996 24.4323 78.4534 20.6098 77.6823C18.7132 77.1942 16.836 76.8525 14.9783 76.6378C13.1205 76.384 11.2822 76.4621 9.49257 76.8818C7.32359 77.448 5.23242 78.0044 3.96799 80.2691C3.29686 81.5088 2.93699 82.934 2.92726 84.369C2.91754 85.8039 3.25796 87.2291 3.91935 88.5079C4.43485 89.406 5.25187 90.1576 6.24396 90.6164C6.67192 90.7824 7.18742 90.88 7.71265 90.8702C8.57829 90.8995 9.3564 90.7531 10.0859 90.4602C11.0391 90.099 11.8366 89.4841 12.4299 88.6836C12.4299 88.6836 14.2001 86.1456 13.1594 84.5642L13.1011 84.4666C12.8579 84.0273 12.4688 83.6857 12.002 83.51C11.5351 83.3342 11.0196 83.3245 10.543 83.4904C9.78437 83.7638 8.9479 83.3635 8.67556 82.6021C8.40322 81.8407 8.802 81.0012 9.56066 80.7279C10.6792 80.3277 11.9144 80.3374 13.033 80.7669C14.1321 81.1867 15.0463 81.9774 15.6299 83.0023C17.6627 86.1749 15.095 89.9819 14.7935 90.4017C13.85 91.6804 12.5953 92.6371 11.1461 93.1837C10.1345 93.584 9.06461 93.7987 7.9558 93.7987V93.7792Z" fill="url(#paint3_linear_1588_23916)"/>
<path d="M51.0731 106.235C50.8883 106.235 50.6938 106.235 50.509 106.216C48.9723 106.089 47.5133 105.562 46.278 104.673C44.7802 103.492 43.7589 101.881 43.3699 100.076C42.8933 98.8065 42.8349 97.3911 43.224 96.083C43.4768 95.0581 44.0993 94.0721 44.9844 93.3693C45.8695 92.6665 46.9686 92.276 48.0871 92.276C49.1765 92.2662 50.3145 92.6372 51.2093 93.3303C52.0944 94.0136 52.7461 94.9897 53.0282 96.083C53.2324 96.864 52.7655 97.6644 51.9777 97.8694C51.1996 98.0646 50.402 97.6058 50.1978 96.8152C50.0811 96.3564 49.8087 95.9366 49.4294 95.6535C49.0501 95.3607 48.5832 95.2338 48.1066 95.2045C47.63 95.2045 47.1631 95.3704 46.7935 95.673C46.4239 95.9659 46.1516 96.3856 46.0446 96.8542C45.8112 97.6449 45.8501 98.4161 46.1321 99.1189L46.21 99.3727C46.4531 100.544 47.0951 101.598 48.0385 102.34C48.7972 102.887 49.7504 103.229 50.7327 103.307C51.7735 103.375 52.8142 103.141 53.7479 102.633C54.6719 102.125 55.4403 101.364 55.9461 100.437C56.7436 98.826 56.0239 96.9909 55.3139 95.224C54.6622 93.7012 53.7479 92.2565 52.6294 90.9679C51.6373 89.8258 50.9953 89.1718 50.3826 88.5275C49.906 88.0395 49.4586 87.5709 48.9042 86.9559C46.4531 84.1055 44.7315 80.6792 43.9048 77.0284C43.2629 73.8851 43.1753 70.7126 43.6519 67.5693C44.0215 63.2645 44.8872 58.8913 46.2294 54.684C46.4726 53.9128 47.2993 53.4833 48.0677 53.7371C48.8361 53.9812 49.2543 54.8109 49.0112 55.5821C47.737 59.5843 46.9103 63.733 46.5504 67.9208C46.1127 70.8102 46.1905 73.6411 46.7546 76.4134C47.4647 79.5664 48.9723 82.5632 51.1023 85.0329C51.5984 85.5893 52.0166 86.0286 52.464 86.4874C53.0865 87.1219 53.7868 87.8442 54.8275 89.0449C56.1406 90.558 57.2105 92.2565 58.0081 94.1014C58.8348 96.1806 59.9339 98.9725 58.5236 101.803C57.7163 103.268 56.5491 104.429 55.1388 105.2C53.8841 105.884 52.4932 106.235 51.0829 106.235H51.0731Z" fill="url(#paint4_linear_1588_23916)"/>
<path d="M26.9425 102.39C26.7674 102.39 26.5923 102.39 26.4075 102.37C24.9778 102.204 23.6258 101.707 22.4586 100.926C21.2137 100.115 20.1438 99.0026 19.3754 97.7141C18.607 96.4256 18.1401 94.9516 18.0137 93.4483V93.3897V93.3214C18.0331 90.3441 20.241 88.9482 21.7097 88.0306C23.2367 87.1618 24.8124 86.6249 26.4756 86.3906C27.9929 86.1173 29.5978 85.9416 31.1929 85.8733C33.5662 85.7268 35.8616 84.8971 37.8069 83.4719C38.9838 82.4372 39.8202 81.0901 40.219 79.5673C40.4233 78.7863 41.2208 78.3178 41.9989 78.5228C42.7771 78.7278 43.2439 79.5282 43.0397 80.3091C42.4853 82.4274 41.3181 84.2919 39.6743 85.7171L39.5868 85.7854C37.1747 87.5718 34.3248 88.6065 31.3388 88.792C29.841 88.8603 28.3723 89.0165 26.9328 89.2703C25.5808 89.4655 24.3456 89.8853 23.2076 90.5295C21.8361 91.3886 20.9705 92.0036 20.9316 93.2726C21.0289 94.3073 21.3498 95.3127 21.8848 96.2011C22.4295 97.1089 23.1784 97.8898 24.0635 98.4657C24.861 99.0026 25.7753 99.3345 26.7091 99.4419C27.0884 99.481 27.4969 99.4224 27.886 99.2857C28.275 99.1491 28.6349 98.9245 28.9267 98.6415L29.1698 98.456C29.3546 98.3388 29.52 98.1827 29.6367 98.007C29.7534 97.8312 29.841 97.6165 29.8799 97.4017C29.9188 96.982 29.841 96.4646 29.6367 95.9961C29.4325 95.5275 29.1018 95.1273 28.6932 94.8247C28.3723 94.5806 28.0027 94.444 27.6233 94.4244C27.244 94.4049 26.8647 94.5025 26.5437 94.6978C25.8531 95.1175 24.9583 94.9028 24.5401 94.2097C24.1218 93.5166 24.3358 92.6185 25.0264 92.1988C25.8531 91.6912 26.8063 91.4569 27.779 91.496C28.7419 91.5448 29.6659 91.8767 30.444 92.4721C31.2416 93.0578 31.903 93.868 32.3115 94.8051C32.72 95.7423 32.8853 96.777 32.7783 97.7922C32.6616 98.5048 32.4185 99.11 32.0683 99.6371C31.7376 100.125 31.3291 100.535 30.8428 100.857C30.2689 101.384 29.5978 101.785 28.8586 102.038C28.2361 102.253 27.6039 102.361 26.9522 102.361L26.9425 102.39Z" fill="url(#paint5_linear_1588_23916)"/>
<path d="M72.967 106.188C72.6363 106.188 72.3154 106.168 71.9944 106.11C71.119 105.934 70.3409 105.651 69.6212 105.241C68.4832 104.626 67.4425 103.737 66.6643 102.673C65.9543 101.619 65.5166 100.458 65.3805 99.2471C65.3027 98.4369 65.0498 94.3956 68.1525 92.9314C69.0473 92.4433 70.1853 92.2578 71.2747 92.453C72.364 92.6483 73.3658 93.2242 74.0953 94.0539C74.6205 94.6592 74.5622 95.5865 73.9591 96.1234C73.3464 96.6505 72.4321 96.592 71.8971 95.9867C71.6054 95.6451 71.1968 95.4206 70.7592 95.3425C70.3215 95.2644 69.8643 95.3425 69.4655 95.5475C68.026 96.2308 68.2789 98.9055 68.2789 98.9347C68.3665 99.6474 68.6291 100.37 69.0473 100.985C69.5434 101.658 70.2437 102.263 71.0315 102.683C71.5081 102.957 71.9944 103.132 72.5099 103.23C74.854 103.591 77.5968 101.443 78.4041 98.515C78.5792 97.8903 78.6667 97.2558 78.6473 96.631C78.3944 94.5908 77.3731 92.7654 75.7682 91.4769C74.4163 90.2762 72.9573 89.3488 71.3816 88.6655C67.6467 86.7815 64.2619 84.4387 61.2468 81.6664C57.8911 78.328 55.479 74.1988 54.234 69.6889C52.989 65.511 52.6973 61.0011 53.3878 56.6669C53.5143 55.8665 54.2632 55.3198 55.0608 55.4565C55.8583 55.5834 56.3933 56.335 56.2668 57.1355C55.6443 61.0401 55.907 65.101 57.0352 68.8787C58.1538 72.9298 60.3033 76.6099 63.2601 79.5482C66.0321 82.096 69.1932 84.2826 72.6169 86.0104C74.4066 86.7815 76.1184 87.8748 77.6454 89.2317C79.8144 90.9595 81.2247 93.5073 81.5554 96.3382V96.4455C81.6041 97.4119 81.4874 98.3783 81.215 99.3057C80.1159 103.279 76.5561 106.178 72.9865 106.178L72.967 106.188Z" fill="url(#paint6_linear_1588_23916)"/>
</g>
<defs>
<linearGradient id="paint0_linear_1588_23916" x1="30.5488" y1="0.125" x2="30.5488" y2="69.689" gradientUnits="userSpaceOnUse">
<stop offset="0.71" stop-color="#00A77F"/>
<stop offset="1" stop-color="white"/>
</linearGradient>
<linearGradient id="paint1_linear_1588_23916" x1="73.049" y1="0.00585937" x2="73.049" y2="69.688" gradientUnits="userSpaceOnUse">
<stop offset="0.71" stop-color="#00A77F"/>
<stop offset="1" stop-color="white"/>
</linearGradient>
<linearGradient id="paint2_linear_1588_23916" x1="82.1393" y1="53.6797" x2="82.1393" y2="93.7791" gradientUnits="userSpaceOnUse">
<stop stop-color="#00A77F"/>
<stop offset="1" stop-color="white"/>
</linearGradient>
<linearGradient id="paint3_linear_1588_23916" x1="24.337" y1="53.7227" x2="24.337" y2="93.7987" gradientUnits="userSpaceOnUse">
<stop stop-color="#00A77F"/>
<stop offset="1" stop-color="white"/>
</linearGradient>
<linearGradient id="paint4_linear_1588_23916" x1="51.0846" y1="53.6641" x2="51.0846" y2="106.235" gradientUnits="userSpaceOnUse">
<stop stop-color="#00A77F"/>
<stop offset="1" stop-color="white"/>
</linearGradient>
<linearGradient id="paint5_linear_1588_23916" x1="30.5507" y1="78.4746" x2="30.5507" y2="102.39" gradientUnits="userSpaceOnUse">
<stop stop-color="#00A77F"/>
<stop offset="1" stop-color="white"/>
</linearGradient>
<linearGradient id="paint6_linear_1588_23916" x1="67.2943" y1="55.4355" x2="67.2943" y2="106.188" gradientUnits="userSpaceOnUse">
<stop stop-color="#00A77F"/>
<stop offset="1" stop-color="white"/>
</linearGradient>
<clipPath id="clip0_1588_23916">
<rect width="107" height="106.236" fill="white"/>
</clipPath>
</defs>
</svg>
