<svg xmlns="http://www.w3.org/2000/svg" width="27" height="27" viewBox="0 0 27 27">
  <g id="dark-mode-icon" transform="translate(-4.5 -4.5)">
    <path id="Pfad_12" data-name="Pfad 12" d="M31.437,22.987c.306-.729-.569-1.35-1.3-1.026a11.526,11.526,0,0,1-4.652.972A11.253,11.253,0,0,1,14.118,11.8a10.92,10.92,0,0,1,1.7-5.865.889.889,0,0,0-.866-1.4A13.767,13.767,0,0,0,4.5,17.793,13.85,13.85,0,0,0,18.489,31.5,13.992,13.992,0,0,0,31.437,22.987Z" fill="#fff"/>
    <path id="Pfad_13" data-name="Pfad 13" d="M23.417,4.655A.875.875,0,0,0,22.2,5.866l.945,1.418a3.5,3.5,0,0,1,0,3.882L22.2,12.583A.875.875,0,0,0,23.418,13.8l1.416-.945a3.5,3.5,0,0,1,3.882,0l1.418.945a.874.874,0,0,0,1.212-1.212L30.4,11.166a3.5,3.5,0,0,1,0-3.882l.945-1.417a.874.874,0,0,0-1.213-1.212L28.716,5.6a3.5,3.5,0,0,1-3.882,0l-1.417-.945Z" fill="#fff"/>
  </g>
</svg>
