<?xml version="1.0" encoding="UTF-8"?>
<svg id="Ebene_1" data-name="Ebene 1" xmlns="http://www.w3.org/2000/svg" viewBox="0 0 21.89 18.09">
  <defs>
    <style>
      .cls-1 {
        fill: #fff;
        stroke-width: 0px;
      }
    </style>
  </defs>
  <path id="Icon_awesome-volume-up" data-name="Icon awesome-volume-up" class="cls-1" d="m10.13.33l-4.19,4.19H1.13C.51,4.52,0,5.03,0,5.65v6.79c0,.62.51,1.13,1.13,1.13h4.81l4.19,4.19c.44.44,1.16.44,1.6,0,.21-.21.33-.5.33-.8V1.13C12.06.51,11.56,0,10.93,0c-.3,0-.59.12-.8.33Zm3.39,1.81h0c.38-.22.86-.09,1.08.29l7.18,12.43c.22.38.09.86-.29,1.08h0c-.38.22-.86.09-1.08-.29L13.23,3.22c-.22-.38-.09-.86.29-1.08Zm7.97,0h0c-.38-.22-.86-.09-1.08.29l-7.18,12.43c-.22.38-.09.86.29,1.08h0c.38.22.86.09,1.08-.29l7.18-12.43c.22-.38.09-.86-.29-1.08Z"/>
</svg>