<svg xmlns="http://www.w3.org/2000/svg" width="26.717" height="20.587" viewBox="0 0 26.717 20.587">
  <g id="mute-icon" transform="translate(0 1.329)">
    <g id="Icon_awesome-volume-up" data-name="Icon awesome-volume-up">
      <path id="Pfad_109" data-name="Pfad 109" d="M10.04.33,5.89,4.48H1.12A1.131,1.131,0,0,0,0,5.6v6.73a1.131,1.131,0,0,0,1.12,1.12H5.89l4.15,4.15a1.125,1.125,0,0,0,1.92-.79V1.12A1.125,1.125,0,0,0,10.84,0a1.112,1.112,0,0,0-.79.33Z" fill="#fff"/>
    </g>
    <path id="Pfad_110" data-name="Pfad 110" d="M20.624,12.256l4.936-8.55a1.162,1.162,0,0,0-2.013-1.161l-4.26,7.389L15.013,2.546A1.162,1.162,0,1,0,13,3.707l4.936,8.55L13,20.806a1.162,1.162,0,1,0,2.013,1.161l4.275-7.389,4.26,7.389a1.162,1.162,0,0,0,2.013-1.161l-4.936-8.55Z" transform="translate(1 -3.292)" fill="#fff"/>
  </g>
</svg>
