<?xml version="1.0" encoding="UTF-8"?>
<svg id="Ebene_1" data-name="Ebene 1" xmlns="http://www.w3.org/2000/svg" viewBox="0 0 21.61 17.94">
  <defs>
    <style>
      .cls-1 {
        fill: #fff;
        stroke-width: 0px;
      }
    </style>
  </defs>
  <g id="Icon_awesome-volume-up" data-name="Icon awesome-volume-up">
    <path class="cls-1" d="m10.04.33l-4.15,4.15H1.12c-.61,0-1.12.51-1.12,1.12v6.73c0,.61.51,1.12,1.12,1.12h4.77l4.15,4.15c.44.44,1.15.44,1.59,0,.21-.21.33-.5.33-.79V1.12c0-.61-.5-1.12-1.12-1.12-.3,0-.58.12-.79.33Z"/>
  </g>
  <path class="cls-1" d="m18.14,8.97l3.36-5.82c.22-.38.09-.86-.29-1.08-.38-.22-.86-.09-1.08.29l-2.9,5.03-2.91-5.03c-.22-.38-.7-.51-1.08-.29-.38.22-.51.7-.29,1.08l3.36,5.82-3.36,5.82c-.22.38-.09.86.29,1.08.38.22.86.09,1.08-.29l2.91-5.03,2.9,5.03c.22.38.7.51,1.08.29.38-.22.51-.7.29-1.08l-3.36-5.82Z"/>
</svg>