<svg xmlns="http://www.w3.org/2000/svg" width="41.084" height="49.301" viewBox="0 0 41.084 49.301">
  <path id="Icon_fa-solid-pause" data-name="Icon fa-solid-pause" d="M6.163,4.5A6.164,6.164,0,0,0,0,10.663V47.638A6.164,6.164,0,0,0,6.163,53.8h4.108a6.164,6.164,0,0,0,6.163-6.163V10.663A6.164,6.164,0,0,0,10.271,4.5Zm24.65,0a6.164,6.164,0,0,0-6.163,6.163V47.638A6.164,6.164,0,0,0,30.813,53.8h4.108a6.164,6.164,0,0,0,6.163-6.163V10.663A6.164,6.164,0,0,0,34.921,4.5Z" transform="translate(0 -4.5)" fill="#fff"/>
</svg>
