<svg xmlns="http://www.w3.org/2000/svg" width="27.144" height="27.144" viewBox="0 0 27.144 27.144">
  <path id="Icon_map-fullscreen" data-name="Icon map-fullscreen" d="M1.44,9.558V1.44H9.878L12.983,3.8H7.808l5.433,5.758L9.878,12.652,4.39,7.489v5.174ZM20.176,1.44h8.407V9.588l-2.36,3.1V7.519l-5.9,5.433L17.156,9.733l5.09-5.343H17.071Zm8.407,18.736v8.407H20.146l-3.105-2.36h5.174l-5.433-5.9,3.364-3.165,5.487,5.09V17.071ZM9.847,28.584H1.44V20.146L3.8,17.041v5.174l5.9-5.433,3.165,3.364-5.09,5.487h5.174Z" transform="translate(-1.44 -1.44)" fill="#fff"/>
</svg>
