<svg xmlns="http://www.w3.org/2000/svg" width="33" height="33" viewBox="0 0 33 33">
  <g id="light-mode-icon" transform="translate(-1.5 -1.5)">
    <path id="Pfad_10" data-name="Pfad 10" d="M18,10.5A7.5,7.5,0,1,0,25.5,18,7.5,7.5,0,0,0,18,10.5Z" fill="#fff"/>
    <path id="Pfad_11" data-name="Pfad 11" d="M18,1.5A1.5,1.5,0,0,1,19.5,3V4.5a1.5,1.5,0,0,1-3,0V3A1.5,1.5,0,0,1,18,1.5ZM4.939,4.939a1.5,1.5,0,0,1,2.121,0l2.25,2.25A1.5,1.5,0,1,1,7.189,9.311l-2.25-2.25a1.5,1.5,0,0,1,0-2.121Zm26.121,0a1.5,1.5,0,0,1,0,2.121l-2.25,2.25a1.5,1.5,0,1,1-2.121-2.121l2.25-2.25a1.5,1.5,0,0,1,2.121,0ZM1.5,18A1.5,1.5,0,0,1,3,16.5H4.5a1.5,1.5,0,0,1,0,3H3A1.5,1.5,0,0,1,1.5,18ZM30,18a1.5,1.5,0,0,1,1.5-1.5H33a1.5,1.5,0,0,1,0,3H31.5A1.5,1.5,0,0,1,30,18ZM9.311,26.69a1.5,1.5,0,0,1,0,2.121l-2.25,2.25a1.5,1.5,0,1,1-2.121-2.121l2.25-2.25a1.5,1.5,0,0,1,2.121,0Zm17.379,0a1.5,1.5,0,0,1,2.121,0l2.25,2.25a1.5,1.5,0,1,1-2.121,2.121l-2.25-2.25A1.5,1.5,0,0,1,26.689,26.69ZM18,30a1.5,1.5,0,0,1,1.5,1.5V33a1.5,1.5,0,0,1-3,0V31.5A1.5,1.5,0,0,1,18,30Z" fill="#fff"/>
  </g>
</svg>
