<svg xmlns="http://www.w3.org/2000/svg" width="5.458" height="7.408" viewBox="0 0 5.458 7.408">
  <path id="_70d350014344e449cdebdd48a1775db4" data-name="70d350014344e449cdebdd48a1775db4" d="M-67.558,132.58a2,2,0,0,0-2,2v3.414a2,2,0,0,0,2,2h1.463a2,2,0,0,0,2-2v-3.414a2,2,0,0,0-2-2Zm0,.583h1.463a1.4,1.4,0,0,1,1.414,1.414v3.414a1.4,1.4,0,0,1-1.414,1.415h-1.463a1.4,1.4,0,0,1-1.415-1.415v-3.414A1.4,1.4,0,0,1-67.558,133.164Zm.727.057a.244.244,0,0,0-.239.247v.52H-67.4l.57,1.017.113-.2.459-.815h-.329v-.52a.244.244,0,0,0-.072-.176A.244.244,0,0,0-66.83,133.221Zm-1.726,2.09a.244.244,0,0,0-.227.255.244.244,0,0,0,.25.232h3.414a.244.244,0,0,0,.216-.12.244.244,0,0,0,0-.247.244.244,0,0,0-.216-.12h-3.437Z" transform="translate(69.555 -132.58)"/>
</svg>
