<svg xmlns="http://www.w3.org/2000/svg" width="27.144" height="22.621" viewBox="0 0 27.144 22.621">
  <path id="Icon_awesome-volume-up" data-name="Icon awesome-volume-up" d="M10.133,3.719,5.941,7.911H1.131A1.131,1.131,0,0,0,0,9.042v6.786a1.131,1.131,0,0,0,1.131,1.131h4.81l4.193,4.192a1.132,1.132,0,0,0,1.931-.8V4.519A1.132,1.132,0,0,0,10.133,3.719Zm11-2.407a1.14,1.14,0,0,0-1.252,1.907,11.011,11.011,0,0,1,0,18.433,1.14,1.14,0,1,0,1.252,1.906,13.291,13.291,0,0,0,0-22.246ZM22.62,12.435a8.7,8.7,0,0,0-4.042-7.363,1.126,1.126,0,0,0-1.561.352A1.144,1.144,0,0,0,17.366,7a6.44,6.44,0,0,1,0,10.878,1.144,1.144,0,0,0-.349,1.572,1.128,1.128,0,0,0,1.561.352A8.7,8.7,0,0,0,22.62,12.435ZM15.939,8.812a1.131,1.131,0,0,0-1.091,1.982,1.858,1.858,0,0,1,0,3.281,1.131,1.131,0,0,0,1.091,1.982,4.12,4.12,0,0,0,0-7.245Z" transform="translate(0 -1.125)" fill="#fff"/>
</svg>
